<?xml version="1.0" encoding="utf-8"?>
<!-- Generator: Adobe Illustrator 26.0.0, SVG Export Plug-In . SVG Version: 6.00 Build 0)  -->
<svg version="1.1" id="layer" xmlns="http://www.w3.org/2000/svg" xmlns:xlink="http://www.w3.org/1999/xlink" x="0px" y="0px"
	 width="500px" height="600px" viewBox="0 0 500 600" style="enable-background:new 0 0 500 600;" xml:space="preserve">
<style type="text/css">
	.st0{fill:#FF9F40;stroke:#FF9F40;stroke-width:1.4;stroke-miterlimit:10;}
</style>
<path class="st0" d="M189.007,322.905c6.481,0.811,12.668,2.899,17.279,7.896c2.966,3.215,6.183,8.409,6.954,7.871
	c0.916-0.638-2.062-5.92-5.719-10.948c-3.623-4.982-15.124-13.641-26.724-13.641c-27.692,0-42.46,19.904-42.826,20.363
	c-0.513,0.646-0.897,1.516-0.15,2.13c1.024,0.841,2.883-0.404,4.158-1.718c0.896-0.924,7.448-8.664,25.352-11.438
	c-2.881,3.418-4.371,8.073-3.591,12.901c1.36,8.426,8.96,14.025,16.99,12.517c8.012-1.507,13.413-9.552,12.055-17.978
	C192.282,327.746,190.919,325.028,189.007,322.905z M227.194,483.702c5.722-0.349,9.405-0.158,13.153-0.078s8.21-11.903,4.401-14.03
	c-4.337-2.422-11.578,0.236-15.861,0.934c-3.797,0.619-9.714,2.07-13.91,2.844c-4.774,0.881-14.287,3.295-16.154,3.784
	c-2.322,0.607-6.056,8.772-2.24,11.59c1.892,1.397,10.381-2.001,15.052-3.049C217.915,484.288,223.634,483.919,227.194,483.702z
	 M161.147,291.886c13.878,0.94,19.472,2.375,24.242,4.589c5.019,2.33,16.974,4.404,19.121-0.812
	c1.152-2.799,5.42-11.118,1.958-12.984c-3.464-1.866-28.759-4.704-45.923-3.406s-29.21,12.657-25.445,14.28
	C138.864,295.177,147.839,290.984,161.147,291.886z M426.412,295.475c-1.722-0.095-3.425-0.014-5.12,0.157
	c0.617-5.811,1.154-11.251,1.585-15.991c2.888-31.762-2.307-78.809-10.828-102.508c-11.55-32.124-40.002-70.058-70.383-91.837
	C320.707,70.272,275.924,55.059,250,55.059c-25.923,0-70.706,15.213-91.665,30.238c-30.382,21.778-58.834,59.714-70.384,91.837
	c-8.52,23.699-13.715,70.744-10.829,102.508c0.431,4.74,0.968,10.18,1.585,15.991c-1.696-0.179-3.409-0.257-5.115-0.157
	c-15.748,0.875-23.483,16.489-24.155,31.573c-0.388,8.55,1.335,18.254,4.841,27.323c0.41,1.058,1.127,2.508,2.013,4.242
	c2.506,4.937,6.296,12.398,5.853,19.096c-0.47,7.007,1.745,22.296,6.154,29.368c2.133,3.424,7.341,11.777,16.465,13.965
	c4.633,23.034,12.603,46.779,26.267,78.423c15.684,36.323,62.605,97.795,138.971,97.795s123.288-61.472,138.97-97.798
	c13.647-31.611,21.618-55.34,26.262-78.357c9.042-2.117,14.32-10.579,16.476-14.036c4.404-7.068,6.619-22.356,6.148-29.362
	c-0.444-6.698,3.347-14.159,5.853-19.096c0.886-1.733,1.603-3.184,2.013-4.236c3.507-9.058,5.229-18.762,4.841-27.328
	C449.89,311.963,442.155,296.35,426.412,295.475z M435.832,350.547c-0.317,0.818-0.892,1.923-1.575,3.263
	c-2.85,5.609-7.62,14.996-6.979,24.604c0.394,5.935-1.833,18.659-4.568,23.05c-4.097,6.57-7.696,9.507-11.208,9.551l-5.136-0.044
	l-0.81,4.332c-4.365,23.428-12.236,47.343-26.321,79.96c-7.376,17.089-22.126,40.129-43.989,58.803
	c-6.855,4.995-19.274,13.304-30.355,16.755c-9.268,2.888-15.796,2.568-19.361,1.94c-8.278-5.413-20.369-10.928-35.4-10.99
	c-14.177-0.059-25.068,5.042-32.61,10.369l0.055-0.215c0,0-7.848,3.466-22.523-1.106c-10.852-3.38-22.974-11.411-29.91-16.433
	c-22.072-18.731-36.956-41.936-44.376-59.125c-14.091-32.622-21.956-56.538-26.316-79.96l-1.072-4.31h-4.404
	c-3.988-0.022-7.586-2.959-11.678-9.523c-2.74-4.398-4.967-17.121-4.573-23.056c0.64-9.608-4.13-18.994-6.979-24.604
	c-0.684-1.34-1.258-2.445-1.575-3.263c-2.948-7.617-4.458-16.008-4.141-23.023c0.345-7.699,3.714-20.882,14.156-21.464
	c0.399-0.022,0.804-0.033,1.209-0.033c1.522,0,3.029,0.219,4.525,0.536c3.606,31.36,8.97,67.645,13.087,67.645
	c5.414,0,2.888-75.436,6.136-91.679c2.831-14.157,7.219-12.272,11.549-24.544c4.331-12.272,0.361-23.822,2.526-45.479
	c2.165-21.656,27.14-42.784,53.058-55.223c27.07-12.993,83.717-11.765,83.725-11.765l0,0c0.008,0,56.657-1.228,83.725,11.765
	c25.917,12.439,50.892,33.567,53.058,55.223s-1.805,33.207,2.526,45.479s8.719,10.386,11.55,24.544
	c3.248,16.242,0.722,91.679,6.136,91.679c4.114,0,9.477-36.259,13.083-67.611c1.893-0.404,3.808-0.648,5.742-0.538
	c10.437,0.582,13.807,13.765,14.151,21.464C440.29,334.549,438.78,342.94,435.832,350.547z M230.823,443.375
	c5.071,0,6.351,1.181,8.112,2.812c2.024,1.865,4.798,4.419,11.066,4.419c6.274,0,8.883-2.56,10.781-4.43
	c1.592-1.564,2.844-2.801,8.396-2.801c2.439,0,4.414-1.975,4.414-4.414s-1.975-4.414-4.414-4.414
	c-8.463,0-11.728,2.522-14.589,5.328c-1.406,1.384-1.93,1.904-4.59,1.904c-2.817,0-3.479-0.613-5.071-2.084
	c-2.943-2.714-6.23-5.147-14.107-5.147c-2.439,0-4.414,1.975-4.414,4.414C226.408,441.4,228.382,443.375,230.823,443.375z
	 M339.455,279.274c-17.165-1.299-42.46,1.539-45.923,3.406c-3.462,1.866,0.805,10.185,1.958,12.984
	c2.148,5.215,14.102,3.142,19.122,0.812c4.769-2.214,10.363-3.649,24.241-4.589c13.309-0.901,22.283,3.291,26.048,1.667
	C368.665,291.931,356.62,280.572,339.455,279.274z M319.205,314.083c-11.6,0-23.101,8.66-26.724,13.641
	c-3.657,5.027-6.634,10.311-5.719,10.948c0.771,0.538,3.988-4.657,6.954-7.871c4.611-4.998,10.798-7.085,17.279-7.896
	c-1.913,2.125-3.276,4.842-3.779,7.955c-1.356,8.427,4.043,16.472,12.055,17.978c8.031,1.509,15.63-4.091,16.99-12.517
	c0.779-4.828-0.711-9.482-3.592-12.901c17.904,2.774,24.457,10.514,25.352,11.437c1.275,1.314,3.134,2.558,4.158,1.718
	c0.747-0.614,0.363-1.483-0.15-2.13C361.666,333.987,346.897,314.083,319.205,314.083z M292.95,498.239
	c-0.219,0.076-22.099,7.789-41.544,7.789c-0.098,0-0.202,0-0.306,0c-19.539-0.082-43.776-8.818-44.022-8.905
	c-2.532-0.93-5.35,0.388-6.28,2.932c-0.925,2.538,0.383,5.355,2.926,6.28c1.055,0.383,26.065,9.408,47.332,9.496
	c0.121,0,0.236,0,0.355,0c21.169,0,43.869-8.013,44.832-8.359c2.549-0.908,3.878-3.715,2.97-6.263
	C298.3,498.666,295.478,497.342,292.95,498.239z M300.823,477.155c-1.868-0.489-11.38-2.902-16.154-3.784
	c-4.196-0.774-10.113-2.226-13.909-2.844c-4.283-0.698-11.524-3.355-15.861-0.934c-3.81,2.127,0.652,14.11,4.401,14.03
	c3.748-0.079,7.432-0.27,13.153,0.078c3.56,0.218,9.279,0.586,15.559,1.995c4.671,1.047,13.16,4.446,15.052,3.049
	C306.878,485.927,303.144,477.762,300.823,477.155z"/>
</svg>
