<?xml version="1.0" encoding="utf-8"?>
<!-- Generator: Adobe Illustrator 26.0.0, SVG Export Plug-In . SVG Version: 6.00 Build 0)  -->
<svg version="1.1" id="layer" xmlns="http://www.w3.org/2000/svg" xmlns:xlink="http://www.w3.org/1999/xlink" x="0px" y="0px"
	 width="500px" height="600px" viewBox="0 0 500 600" style="enable-background:new 0 0 500 600;" xml:space="preserve">
<style type="text/css">
	.st0{stroke:#000000;stroke-width:1.4;stroke-miterlimit:10;}
</style>
<path class="st0" d="M223.399,360.986c10.017-9.613,19.714-30.853,19.612-52.969c1.973-2.862,3.908-6.642,3.199-9.881
	c-0.904-4.133-3.991-5.931-6.527-6.745c-4.689-9.956-13.725-18.211-21.705-23.109c3.849,0.729,6.934,1.105,7.917-0.053
	c2.482-2.923-1.805-10.848-1.805-10.848c-1.387-2.564-4.902-4.801-7.813-4.971c0,0-43.752-2.557-59.697,2.708
	c-3.671,1.213-6.331,2.884-8.293,4.718c-2.981,0.743-5.842,1.67-8.688,2.809c-6.407,2.563-12.407,7.698-17.151,13.562
	c-3.211,1.222-6.88,2.538-9.643,3.284c-2.629,0.71-5.711,0.697-8.203,1.068l-1.286,9.171c1.817,1.617,3.992,3.15,5.589,4.65
	c1.071,1.007,2.273,2.31,3.423,3.618c-2.124,14.975-0.312,40.232,13.404,56.144c12.373,14.353,25.115,24.237,47.093,25.846
	c1.837,0.134,3.618,0.197,5.352,0.197C200.649,380.185,214.642,369.393,223.399,360.986z M133.762,347.223
	c-11.4-13.226-13.076-37.243-10.626-50.072c1.518-7.962,10.683-20.442,19.945-24.432c0.028,0.446,0.065,0.718,0.065,0.718
	c0.454,2.88,3.085,4.472,5.847,3.539c0,0,21.566-7.287,27.648-8.352c0.471-0.082,0.895-0.148,1.349-0.225
	c1.557,0.075,3.095,0.145,4.777,0.258c11.422,0.774,21.273,3.602,29.278,8.407c9.152,5.49,19.374,16.087,20.192,26.379
	c1.57,19.722-7.176,41.254-16.181,49.894c-8.643,8.301-21.275,17.635-42.458,16.077
	C155.117,368.064,144.998,360.255,133.762,347.223z M240.84,466.856c5.303-1.428,6.65-20.096,0.419-21.52
	c-7.094-1.622-16.184,5.087-21.919,7.826c-5.084,2.427-12.808,6.898-18.388,9.709c-6.35,3.199-18.734,10.497-21.159,11.951
	c-3.015,1.807-4.908,14.812,1.616,17.204c3.233,1.185,13.774-7.076,19.911-10.466c8.251-4.558,16.141-7.424,21.057-9.193
	C230.278,469.528,235.537,468.283,240.84,466.856z M191.497,319.737c8.636-1.51,14.55-10.084,13.208-19.161
	c-0.266-1.798-0.861-3.435-1.609-4.965c6.49,0.975,11.894,3.275,15.474,6.178c2.427,1.944,4.012,5.141,4.821,4.501
	c0.96-0.76-4.656-6.549-6.103-8.063l0.002,0.005c-5.7-6.162-15.209-13.438-27.761-12.368c-21.379,1.821-53.942,32.292-53.942,32.292
	s-1.816,1.837,0.213,2.099c1.365,0.176,4.578-2.306,4.578-2.306s16.254-10.869,33.179-17.606c-0.338,1.84-0.444,3.753-0.153,5.707
	C174.749,315.124,182.842,321.248,191.497,319.737z M232.165,406.999c-2.439,0-4.417,1.98-4.417,4.419s1.977,4.419,4.417,4.419
	c4.587,0,5.732,1.055,7.322,2.522c1.918,1.767,4.54,4.196,10.489,4.196c5.957,0,8.429-2.434,10.237-4.211
	c1.48-1.455,2.549-2.506,7.573-2.506c2.439,0,4.417-1.98,4.417-4.419S270.226,407,267.786,407c-7.978,0-11.066,2.391-13.768,5.043
	c-1.308,1.291-1.701,1.674-4.042,1.674c-2.495,0-3.038-0.503-4.497-1.849C242.7,409.302,239.59,406.999,232.165,406.999z
	 M433.818,314.245c-5.702-0.34-11.329,0.875-16.574,3.621c-0.005-0.211-0.023-0.409-0.029-0.619
	c2.162-21.712,2.822-48.276-1.169-75.799l1.006-11.521c0.29-3.339,7.057-82.203-0.101-115.368
	c-9.059-41.957-28.074-69.92-58.135-85.487C325.403,11.771,288.782,3,249.975,3c-38.81,0-75.428,8.771-108.839,26.073
	c-30.065,15.568-49.082,43.53-58.135,85.487C75.84,147.724,82.61,226.588,82.9,229.93l0.907,10.384
	c-4.426,27.659-3.633,55.072-1.244,77.466c-5.191-2.68-10.729-3.882-16.377-3.534c-16.593,1.05-23.135,18.355-23.694,32.853
	c-0.337,8.866,1.384,18.918,4.846,28.299c0.402,1.094,1.113,2.587,1.977,4.382c2.511,5.189,6.304,13.026,5.883,20.165
	c-0.427,7.253,1.792,23.061,6.112,30.347c2.442,4.124,8.93,15.07,20.482,15.087c0.008,0,0.017,0,0.025,0
	c5.027,0,9.715-2.511,13.711-5.825c5.735,26.464,11.197,43.836,11.544,44.908c0.585,1.532,14.829,37.951,57.047,76.787
	c40.91,37.645,80.516,36.031,85.854,35.62c0.72,0.054,2.059,0.132,3.941,0.132c12.092,0,46.517-3.184,81.913-35.752
	c42.218-38.837,56.464-75.256,57.153-77.083c0.254-0.81,5.708-18.165,11.446-44.646c4.004,3.331,8.705,5.859,13.754,5.859
	c0.008,0,0.017,0,0.025,0c11.555-0.017,18.04-10.967,20.479-15.087c4.318-7.28,6.539-23.089,6.115-30.347
	c-0.421-7.138,3.372-14.977,5.881-20.168c0.867-1.792,1.575-3.285,1.977-4.376c3.465-9.381,5.186-19.432,4.846-28.302
	C456.951,332.599,450.412,315.295,433.818,314.245z M93.361,116.798c8.348-38.672,25.57-64.289,52.648-78.311
	c32.341-16.746,66.348-24.886,103.965-24.886s71.624,8.14,103.968,24.886c27.077,14.022,44.299,39.639,52.648,78.311
	c4.871,22.575,2.768,69.74,1.143,95.142c-4.977-7.843-12.059-18.03-21.21-28.878c-0.079-0.14-0.146-0.298-0.225-0.438l-0.566-0.812
	c-23.857-28.085-50.83-47.936-80.168-59.005l-0.618-0.191c-0.172-0.042-0.359-0.068-0.532-0.11
	c-16.141-6.008-33.972-9.698-53.517-9.698l-0.635,0.008h-0.577l-0.635-0.008c-19.545,0-37.375,3.69-53.515,9.698
	c-0.173,0.042-0.36,0.067-0.534,0.11l-0.618,0.191c-29.344,11.068-56.316,30.922-80.171,59.007l-0.566,0.81
	c-0.081,0.143-0.149,0.306-0.23,0.448c-9.147,10.845-16.226,21.028-21.201,28.867C90.591,186.542,88.487,139.38,93.361,116.798z
	 M442.715,371.726c-0.317,0.861-0.894,2.027-1.575,3.432c-2.806,5.803-7.502,15.518-6.922,25.408
	c0.369,6.269-1.907,19.692-4.652,24.319c-4.045,6.832-7.554,9.884-11.375,9.89c-0.003,0-0.006,0-0.008,0
	c-3.301,0-8.058-3.533-12.728-9.457l-7.103-9.004l-2.256,11.24c-6.288,31.31-13.125,53.113-13.115,53.113
	c-0.137,0.349-14.013,35.554-54.011,72.476c-0.11-0.288-0.188-0.561-0.32-0.859c-6.645-14.986,3.182-24.398-7.707-23.902
	c-0.876,0.257-12.466-1.744-12.466,7.734c0,17.95-12.911,24.989-17.011,25.477c-18.421,2.195-18.421-3.386-23.677-7.483
	c-4.752-3.706-5.612-4.131-7.943-5.384c-2.295-1.234-4.917-2.768-9.67-2.815v-0.017c-0.038,0-0.063,0.008-0.1,0.008
	s-0.063-0.008-0.1-0.008v0.017c-4.753,0.047-7.375,1.581-9.67,2.815c-2.33,1.253-3.191,1.679-7.943,5.384
	c-5.256,4.098-5.257,9.678-23.677,7.483c-4.1-0.488-17.011-7.527-17.011-25.477c0-9.478-11.59-7.477-12.465-7.734
	c-10.889-0.496-1.062,8.915-7.707,23.902c-0.154,0.348-0.249,0.667-0.372,1.001c-40.116-36.973-54.019-72.267-54.05-72.317
	c-0.068-0.219-6.919-22.023-13.213-53.36l-2.253-11.214l-7.1,8.97c-4.663,5.891-9.408,9.408-12.693,9.408c-0.003,0-0.006,0-0.008,0
	c-3.82-0.006-7.33-3.058-11.38-9.89c-2.743-4.627-5.016-18.051-4.647-24.319c0.58-9.89-4.116-19.604-6.922-25.405
	c-0.681-1.409-1.261-2.574-1.578-3.435c-2.948-7.991-4.48-16.82-4.196-24.221c0.312-8.12,3.564-22.035,13.768-22.681
	c6.124-0.386,11.979,1.988,17.375,7.073l0.128,0.12c0.054,0.374,0.112,0.728,0.167,1.098c1.818,15.279,4.821,36.606,7.385,36.028
	c2.366-0.534,1.588-17.407,1.228-33.948l0.028-7.139c0.005-1.275,0.041-2.52,0.055-3.785
	c5.077-84.888,24.403-127.599,42.264-149.618c6.92-6.9,14.671-13.717,23.246-20.041c3.71-2.068,6.641-3.285,8.362-4.168
	c24.278-12.454,42.861-14.946,82.881-14.946h0.025c40.02,0,58.602,2.492,82.881,14.946c1.708,0.875,4.606,2.083,8.273,4.12
	c8.663,6.382,16.484,13.269,23.461,20.238c17.786,22.013,36.987,64.577,42.107,148.876c0.019,1.477,0.058,2.934,0.064,4.424
	l0.025,6.888c-0.359,16.605-1.153,33.615,1.223,34.152c0.01,0.002,0.042,0.01,0.042,0.01c2.622,0.377,5.73-21.887,7.553-37.122
	l0.102-0.096c5.401-5.114,11.307-7.502,17.416-7.111c10.207,0.645,13.456,14.558,13.765,22.679
	C447.198,354.905,445.667,363.734,442.715,371.726z M359.545,317.947c0,0,3.213,2.481,4.578,2.306
	c2.028-0.261,0.213-2.099,0.213-2.099L359.545,317.947z M282.634,298.231l0.002-0.006c-1.448,1.514-7.065,7.302-6.103,8.063
	c0.808,0.641,2.39-2.548,4.812-4.494c3.624-2.94,9.121-5.265,15.725-6.218c-0.772,1.544-1.38,3.208-1.65,5.033
	c-1.327,8.961,4.512,17.426,13.037,18.917c8.544,1.493,16.533-4.552,17.863-13.512c0.293-1.972,0.184-3.904-0.169-5.758
	c17.003,6.73,33.396,17.691,33.396,17.691l4.79,0.207c0,0-32.562-30.471-53.942-32.292
	C297.843,284.793,288.334,292.068,282.634,298.231z M387.145,279.489c-2.761-0.744-6.431-2.062-9.642-3.284
	c-4.745-5.865-10.745-11-17.152-13.562c-3.499-1.4-7.04-2.457-10.782-3.265c-1.91-1.652-4.406-3.152-7.77-4.262
	c-15.946-5.265-59.697-2.708-59.697-2.708c-2.911,0.17-6.426,2.407-7.813,4.971c0,0-4.287,7.925-1.805,10.848
	c1.175,1.385,5.304,0.605,10.23-0.389c-0.083,0.049-0.179,0.084-0.262,0.135c-8.093,4.857-17.402,13.264-22.184,23.417
	c-2.535,0.815-5.621,2.612-6.525,6.744c-0.709,3.239,1.226,7.018,3.199,9.88c-0.1,22.116,9.596,43.357,19.611,52.97
	c8.758,8.407,22.749,19.2,45.22,19.2c1.734,0,3.517-0.063,5.352-0.197c21.978-1.606,34.72-11.493,47.093-25.846
	c13.717-15.915,15.529-41.171,13.407-56.146c1.15-1.308,2.352-2.611,3.422-3.616c1.597-1.5,3.772-3.033,5.588-4.65l-1.285-9.171
	C392.856,280.186,389.775,280.199,387.145,279.489z M366.187,347.223c-11.236,13.032-21.355,20.84-39.838,22.192
	c-21.16,1.559-33.812-7.775-42.458-16.077c-9.001-8.64-17.748-30.175-16.181-49.894c0.818-10.292,11.042-20.89,20.192-26.379
	c8.005-4.802,17.857-7.633,29.278-8.407c1.256-0.085,2.392-0.133,3.578-0.197c0.333,0.056,0.636,0.103,0.977,0.162
	c6.083,1.064,27.649,8.352,27.649,8.352c2.762,0.933,5.394-0.659,5.847-3.539c0,0,0.076-0.506,0.089-1.344
	c0.361,0.137,0.732,0.248,1.091,0.392c9.411,3.766,18.858,16.574,20.403,24.667C379.266,309.981,377.587,333.997,366.187,347.223z
	 M233.124,516.387c-0.222,0-0.408,0.164-0.438,0.383s0.107,0.427,0.317,0.487c0.047,0.011,4.526,1.296,7.346,3.451
	c0.711,0.547,1.33,1.127,1.929,1.685c1.882,1.761,3.662,3.429,7.696,3.429s5.814-1.668,7.696-3.429
	c0.599-0.558,1.217-1.138,1.928-1.685c2.82-2.155,7.302-3.44,7.349-3.451c0.211-0.06,0.348-0.268,0.317-0.487
	c-0.03-0.219-0.216-0.383-0.438-0.383H233.124z M282.723,493.359c-0.169,0.071-16.984,7.018-31.871,7.018
	c-14.876,0-33.496-7.423-33.682-7.499c-2.517-1.007-5.363,0.202-6.378,2.714c-1.012,2.511,0.202,5.366,2.714,6.378
	c0.829,0.334,20.545,8.21,37.347,8.21c16.828,0,34.885-7.456,35.645-7.772c2.5-1.044,3.679-3.911,2.636-6.411
	C288.092,493.496,285.212,492.319,282.723,493.359z M298.994,462.872c-5.58-2.811-13.305-7.281-18.387-9.709
	c-5.735-2.739-14.825-9.448-21.919-7.826c-6.231,1.424-4.885,20.092,0.419,21.52c5.303,1.427,10.562,2.672,18.462,5.512
	c4.915,1.768,12.807,4.635,21.057,9.193c6.137,3.391,16.677,11.651,19.911,10.466c6.525-2.392,4.63-15.397,1.616-17.204
	C317.729,473.369,305.345,466.071,298.994,462.872z"/>
</svg>
