<!--?xml version="1.0" encoding="utf-8"?-->
<!-- Generator: Adobe Illustrator 26.0.0, SVG Export Plug-In . SVG Version: 6.00 Build 0)  -->
<svg version="1.1" id="layer" xmlns="http://www.w3.org/2000/svg" xmlns:xlink="http://www.w3.org/1999/xlink" x="0px" y="0px" width="100%" height="100%" viewBox="0 0 500 600" style="enable-background:new 0 0 500 600;" xml:space="preserve">
<style type="text/css">
  .st0{fill:#FF9F40;stroke:#FF9F40;stroke-width:1.4;stroke-miterlimit:10;}

  @-webkit-keyframes animate-svg-stroke-1 {
    0% {
      stroke-dashoffset: 4019.92041015625px;
      stroke-dasharray: 4019.92041015625px;
    }

    100% {
      stroke-dashoffset: 8039.8408203125px;
      stroke-dasharray: 4019.92041015625px;
    }
  }

  @keyframes animate-svg-stroke-1 {
    0% {
      stroke-dashoffset: 4019.92041015625px;
      stroke-dasharray: 4019.92041015625px;
    }

    100% {
      stroke-dashoffset: 8039.8408203125px;
      stroke-dasharray: 4019.92041015625px;
    }
  }

  @-webkit-keyframes animate-svg-fill-1 {
    0% {
      fill: transparent;
    }

    100% {
      fill: rgb(255, 159, 64);
    }
  }

  @keyframes animate-svg-fill-1 {
    0% {
      fill: transparent;
    }

    100% {
      fill: rgb(255, 159, 64);
    }
  }

  .svg-element-1 {
    -webkit-animation: animate-svg-stroke-1 1s ease-out 0.1s both,
                        animate-svg-fill-1 2s ease-out 1s both;
            animation: animate-svg-stroke-1 1s ease-out 0.1s both,
                animate-svg-fill-1 2s ease-out 1s both;
  }
</style>
<path class="st0 svg-element-1" d="M312.428,281.74c5.72-1.102,10.293-1.92,23.288-2.277c12.158-0.335,44.571,5.306,44.571,5.306
  c-0.086-0.143-11.13-18.708-41.43-19.003c-15.691-0.152-39.465,0.39-42.521,2.261c-3.055,1.871-2.548,11.677-1.355,14.11
  C297.204,286.672,307.525,282.685,312.428,281.74z M240.347,451.526c4.891,0,6.126,1.198,7.841,2.855
  c2.002,1.941,4.745,4.595,10.997,4.595c6.258,0,8.834-2.658,10.721-4.601c1.603-1.652,2.757-2.85,8.112-2.85
  c2.439,0,4.414-1.975,4.414-4.414s-1.975-4.414-4.414-4.414c-8.396,0-11.63,2.615-14.454,5.53c-1.392,1.434-1.862,1.92-4.379,1.92
  c-2.678,0-3.315-0.618-4.855-2.112c-2.91-2.812-6.168-5.339-13.984-5.339c-2.439,0-4.417,1.975-4.417,4.414
  C235.929,449.551,237.907,451.526,240.347,451.526z M201.181,324.749c2.058,0.708,3.932,1.551,5.476,2.528
  c6.347,4.02,20.747,19.82,20.747,19.82s-6.926-17.22-15.089-24.476c-8.524-7.578-16.493-10.862-29.409-9.945
  c-9.696,0.688-21.17,6.717-26.769,10.996c-9.532,7.284-12.816,12.933-23.218,16.548c0,2.193,5.638,5.734,19.572-3.615
  c7.627-5.117,18.395-12.191,26.225-14.021c-4.382,3.128-7.263,8.227-7.263,14.021c0,9.527,7.723,17.25,17.25,17.25
  c9.528,0,17.25-7.724,17.25-17.25C205.952,332.002,204.12,327.843,201.181,324.749z M206.108,281.74
  c4.903,0.945,15.224,4.932,17.449,0.398c1.193-2.433,1.701-12.239-1.356-14.11c-3.055-1.871-26.83-2.414-42.521-2.261
  c-30.301,0.295-41.343,18.861-41.43,19.003c0,0,32.414-5.641,44.571-5.306C195.815,279.82,200.388,280.638,206.108,281.74z
   M427.84,208.711c-24.308-45.972-81.251-103.824-104.888-115.616s-46.127-17.132-63.771-17.975
  c-17.644-0.843-35.664-1.349-70.161,11.218c-34.499,12.566-51.548,30.233-72.426,52.69c-20.878,22.458-61.878,89.732-79.706,132.238
  c-17.829,42.507-21.845,101.629,2.723,145.133c16.147,28.592,78.687,91.011,78.687,91.011s-0.053-0.266-0.148-0.741
  c18.274,24.51,42.949,43.73,73.316,57.184c10.369,10.976,35.579,33.508,68.022,33.508c27.88,0,50.566-17.388,61.767-27.915
  c32.625-11.939,59.22-31.43,79.017-58.013l0.317-0.476c7.899-13.395,13.454-26.509,17.389-39.332
  c2.988-3.969,5.966-8.293,8.44-12.655c8.638-15.225,51.236-55.216,51.236-103.832C477.654,280.328,451.747,253.924,427.84,208.711z
   M414.191,403.852c-0.792,27.823-3.115,47.779-5.439,61.39c-3.718,13.1-9.152,26.475-17.149,40.086
  c-16.219,21.69-37.32,38.335-62.818,49.656c-0.218-0.271-0.373-0.579-0.649-0.81c-2.231-1.876-5.58-1.575-7.467,0.667
  c-0.268,0.317-27.109,31.918-61.179,31.918c-36.717,0-64.543-34.942-64.819-35.292c-1.708-2.177-4.746-2.594-7.014-1.124
  c-24.997-12.432-45.498-29.181-60.75-49.616c-7.766-13.098-13.017-25.385-16.573-37.172c-2.313-14.182-4.384-28.847-4.988-38.995
  c-1.564-26.278,3.119-95.028,23.44-131.533c19.27-34.618,3.129-91.175,44.972-122.226s89.789-31.308,129.809-22.642
  c24.416,5.287,46.24,22.283,62.095,60.94c10.133,24.705,11.571,62.577,19.527,79.308
  C405.59,331.321,415.958,341.743,414.191,403.852z M308.294,484.323c-0.366,0.115-8.927,2.932-13.062,4.715
  c-0.881,0.383-2.068,1.072-3.572,1.991c-5.35,3.255-15.305,9.31-32.514,9.31c-17.211,0-27.17-6.061-32.52-9.315
  c-1.502-0.914-2.689-1.603-3.566-1.986c-4.048-1.745-13.391-5.218-13.787-5.366c-2.532-0.93-5.361,0.35-6.301,2.888
  c-0.94,2.538,0.35,5.361,2.888,6.301c0.096,0.033,9.499,3.528,13.316,5.18c0.585,0.251,1.356,0.749,2.357,1.356
  c5.73,3.49,17.655,10.743,37.612,10.743c19.954,0,31.879-7.253,37.606-10.738c1.007-0.613,1.778-1.111,2.363-1.362
  c3.73-1.614,12.149-4.382,12.23-4.408c2.576-0.842,3.977-3.611,3.128-6.181C313.633,484.882,310.854,483.459,308.294,484.323z
   M336.14,312.678c-12.916-0.918-20.885,2.366-29.409,9.945c-8.162,7.256-15.089,24.476-15.089,24.476s14.401-15.799,20.747-19.82
  c1.543-0.977,3.417-1.821,5.476-2.528c-2.94,3.094-4.772,7.253-4.772,11.858c0,9.527,7.723,17.25,17.25,17.25
  c9.528,0,17.251-7.724,17.251-17.25c0-5.794-2.88-10.894-7.263-14.021c7.83,1.831,18.598,8.904,26.225,14.021
  c13.933,9.349,19.572,5.806,19.572,3.615c-10.403-3.615-13.688-9.263-23.218-16.548C357.31,319.395,345.835,313.366,336.14,312.678z
  "></path>
</svg>
