<?xml version="1.0" encoding="utf-8"?>
<!-- Generator: Adobe Illustrator 26.0.0, SVG Export Plug-In . SVG Version: 6.00 Build 0)  -->
<svg version="1.1" id="レイヤー_1" xmlns="http://www.w3.org/2000/svg" xmlns:xlink="http://www.w3.org/1999/xlink" x="0px"
	 y="0px" width="600px" height="600px" viewBox="0 0 600 600" style="enable-background:new 0 0 600 600;" xml:space="preserve">
<style type="text/css">
	.st0{stroke:#000000;stroke-width:4;stroke-miterlimit:10;}
	.st1{fill:#FFFFFF;stroke:#FFFFFF;stroke-width:2;stroke-miterlimit:10;}
</style>
<g>
	<path class="st0" d="M383.262,15.337c65.229,28.527,107.213,20.202,156.282,105.584c46.053,80.142,56.211,104.093,56.211,141.583
		c0,37.464,10.444,70.816-29.164,156.173c-39.508,85.349-85.341,112.427-131.139,129.06
		c-45.814,16.668-142.989,78.439-245.708,27.097C94.992,527.406,46.905,510.078,27.796,431.165
		C8.144,349.954-5.048,259.587,8.601,208.38c21.247-79.684,93.683-188.058,175.919-188.058S325.051-10.157,383.262,15.337z"/>
	<path class="st1" d="M381.024,190.958l-6.478-0.704c-0.017,0-19.447-0.95-19.447-0.95l-19.72-0.865
		c-0.034,0-41.322-1.619-41.322-1.619l-7.392-1.355l-3.596-16.652v-15.769c0-3.027-1.358-4.738-2.493-5.646
		c-3.053-2.409-7.308-1.627-13.464-0.171l-6.103,4.503c-1.679,2.722-2.307,6.425-2.307,10.419c0,4.976,0.984,10.411,2.07,14.963
		c0.23,0.953,0.503,2.136,0.771,3.299l-3.35-0.779c0.035,0-13.767-0.535-13.767-0.535l-15.736-0.78l-9.24-1.866l-26.892-3.644
		l-5.375,0.018c-9.699,0.05-19.737,0.101-23.264-1.832c0.016,0.008-2.679-1.577-2.679-1.577c-5.511-3.357-13.853-8.419-19.635-2.646
		c-5.256,5.267-5.053,12.278,0.544,17.873c3.967,3.942,14.174,7.037,16.175,7.613l0.17,0.041c1.322,0.323,32.471,7.928,51.02,7.928
		l57.042,4.783c1.193,6.858,2.066,13.164,2.066,16.921l3.408,26.172l2.917,18.389c0,0.203,0.271,32.123,0.338,39.635
		c-5.272-1.256-10.257-2.255-14.054-2.899l-3.088-0.542c-11.293-2.138-22.686-0.247-32.911,5.459
		c-12.208,6.851-26.248,26.9-33.386,47.672c-7.308,21.185-6.748,39.695-3.322,64.484c2.321,16.889,15.683,34.615,40.846,54.209
		c15.057,11.731,22.55,8.196,31.487,1.923l3.035-2.069c7.612-4.96,10.938-13.107,14.447-21.729l4.442-10.208
		c5.001-10.25,7.851-34.176,10.139-53.403l2.035-16.067c0.832-5.434,1.476-16.939,2.018-29.977c3.97,2.977,8.649,4.807,12.157,8.317
		c5.257,5.298,22.095,41.694,27.69,63.924c2.915,11.717,3.78,22.703,3.78,31.564c0,9.377-0.965,16.387-1.474,19.398
		c-1.221,7.409-5.511,11.802-13.922,14.243c-6.256,1.839-10.749,5.256-12.648,9.631c-0.543,1.272-1.017,2.933-1.017,4.917
		c0,1.9,0.423,4.077,1.628,6.486l5.58,4.817c6.34,2.059,14.684-1.876,23.38-6.443c8.902-4.655,12.922-12.651,15.753-19.889
		c1.745-4.52,2.118-15.897,2.118-28.597c0-3.137-0.085-14.633-0.085-14.633c0-8.928-2.797-29.403-6.408-42.441
		c-2.967-10.76-9.073-21.144-14.955-31.191l-3.849-6.604c-6.884-12.09-12.905-20.763-26.757-34.565
		c-2.916-2.934-6.41-5.273-10.038-7.343c0.492-19.692,0.745-36.955,0.763-38.455l-0.527-16.719l-3.034-11.887l-2.883-10.708V212.89
		l-1.274-6.312l16.483,0.793l23.824,1.196l8.035,0.101c34.778,0.585,46.595-0.424,50.547-4.307l1.289-1.281l0.458-2.771
		C391.587,191.916,386.686,191.475,381.024,190.958z M274.912,335.702l-3.373,35.286l-1.882,16.107
		c0,10.386-7.155,45.586-15.464,61.888c-2.205,4.316-4.611,6.884-6.767,7.225c-3.204,0.5-7.323-3.647-9.528-5.876l-24.01-24.315
		c-7.02-7.07-6.987-10.613-5.579-30.785l0.61-9.273c1.762-27.504,8.986-39.729,19.008-54.006
		c8.461-11.996,31.691-8.858,47.087-2.832C274.98,331.573,274.912,335.702,274.912,335.702z M458.411,368.936
		c0-0.008-17.143-43.525-17.143-43.525l-3.103-8.513c-2.799-7.188-5.222-13.405-5.222-25.002l-0.339-7.91
		c-0.476-6.994-0.61-11.081,2.001-13.693l6.849-8.332c3.461-5.579,2.967-10.343-0.338-13.345c-3.206-2.899-9.361-3.9-15.328,0.738
		c-8.002,6.171-15.21,13.209-15.21,31.192l2.255,23.788l1.289,5.612c3.238,14.616,11.31,39.619,13.751,45.222
		c2.408,5.511,12.428,26.214,17.312,30.105c3.068,2.494,8.341,2.382,11.734-0.263C458.901,383.459,463.005,378.797,458.411,368.936z
		"/>
</g>
</svg>
